<svg width="37" height="32" viewBox="0 0 37 32" fill="none" xmlns="http://www.w3.org/2000/svg">
<g clip-path="url(#clip0_2607_3916)">
<path d="M0 26.4L3.70487 20H9.84908C13.8805 20 17.2892 22.9682 17.822 26.9427L18.5 32H10.4565L9.29705 29.3092C8.53654 27.5443 6.79174 26.4 4.86117 26.4H0Z" fill="white"/>
<path d="M37 26.4L33.2951 20H27.1509C23.1194 20 19.7108 22.9682 19.178 26.9427L18.5 32H26.5435L27.7029 29.3092C28.4635 27.5443 30.2082 26.4 32.1388 26.4H37Z" fill="white"/>
<path d="M3.70312 20L15.2808 0H18.4982L18.1791 7.61924C17.9037 14.1925 12.6631 19.4877 6.05931 19.8653L3.70312 20Z" fill="white"/>
<path d="M33.2951 20L21.7175 0H18.5L18.8192 7.61924C19.0946 14.1925 24.3351 19.4877 30.9389 19.8653L33.2951 20Z" fill="white"/>
</g>
<defs>
<clipPath id="clip0_2607_3916">
<rect width="37" height="32" fill="white"/>
</clipPath>
</defs>
</svg>
