<svg width="190" height="38" viewBox="0 0 190 38" fill="none" xmlns="http://www.w3.org/2000/svg">
<g clip-path="url(#clip0_2606_3908)">
<path d="M0 29.4L3.70487 23H9.84908C13.8805 23 17.2892 25.9682 17.822 29.9427L18.5 35H10.4565L9.29705 32.3092C8.53654 30.5443 6.79174 29.4 4.86117 29.4H0Z" fill="#2B2B21"/>
<path d="M37 29.4L33.2951 23H27.1509C23.1194 23 19.7108 25.9682 19.178 29.9427L18.5 35H26.5435L27.7029 32.3092C28.4635 30.5443 30.2082 29.4 32.1388 29.4H37Z" fill="#2B2B21"/>
<path d="M3.70312 23L15.2808 3H18.4982L18.1791 10.6192C17.9037 17.1925 12.6631 22.4877 6.05931 22.8653L3.70312 23Z" fill="#2B2B21"/>
<path d="M33.2951 23L21.7175 3H18.5L18.8192 10.6192C19.0946 17.1925 24.3351 22.4877 30.9389 22.8653L33.2951 23Z" fill="#2B2B21"/>
</g>
<path d="M73.448 5.476L63.72 32H57.26L47.532 5.476H53.232L60.528 26.566L67.786 5.476H73.448ZM95.0676 21.018C95.0676 21.778 95.017 22.462 94.9156 23.07H79.5256C79.6523 24.59 80.1843 25.7807 81.1216 26.642C82.059 27.5033 83.2116 27.934 84.5796 27.934C86.5556 27.934 87.9616 27.0853 88.7976 25.388H94.5356C93.9276 27.4147 92.7623 29.0867 91.0396 30.404C89.317 31.696 87.2016 32.342 84.6936 32.342C82.667 32.342 80.843 31.8987 79.2216 31.012C77.6256 30.1 76.3716 28.8207 75.4596 27.174C74.573 25.5273 74.1296 23.6273 74.1296 21.474C74.1296 19.2953 74.573 17.3827 75.4596 15.736C76.3463 14.0893 77.5876 12.8227 79.1836 11.936C80.7796 11.0493 82.6163 10.606 84.6936 10.606C86.695 10.606 88.481 11.0367 90.0516 11.898C91.6476 12.7593 92.8763 13.988 93.7376 15.584C94.6243 17.1547 95.0676 18.966 95.0676 21.018ZM89.5576 19.498C89.5323 18.13 89.0383 17.0407 88.0756 16.23C87.113 15.394 85.935 14.976 84.5416 14.976C83.2243 14.976 82.1096 15.3813 81.1976 16.192C80.311 16.9773 79.7663 18.0793 79.5636 19.498H89.5576ZM103.131 14.216C103.815 13.1013 104.701 12.2273 105.791 11.594C106.905 10.9607 108.172 10.644 109.591 10.644V16.23H108.185C106.513 16.23 105.246 16.6227 104.385 17.408C103.549 18.1933 103.131 19.5613 103.131 21.512V32H97.8108V10.948H103.131V14.216ZM114.732 8.44C113.795 8.44 113.009 8.14867 112.376 7.566C111.768 6.958 111.464 6.21066 111.464 5.324C111.464 4.43733 111.768 3.70266 112.376 3.12C113.009 2.512 113.795 2.208 114.732 2.208C115.669 2.208 116.442 2.512 117.05 3.12C117.683 3.70266 118 4.43733 118 5.324C118 6.21066 117.683 6.958 117.05 7.566C116.442 8.14867 115.669 8.44 114.732 8.44ZM117.354 10.948V32H112.034V10.948H117.354ZM120.102 21.398C120.102 19.27 120.52 17.3827 121.356 15.736C122.218 14.0893 123.383 12.8227 124.852 11.936C126.322 11.0493 127.956 10.606 129.754 10.606C131.122 10.606 132.427 10.91 133.668 11.518C134.91 12.1007 135.898 12.886 136.632 13.874V3.88H142.028V32H136.632V28.884C135.974 29.9227 135.049 30.7587 133.858 31.392C132.668 32.0253 131.287 32.342 129.716 32.342C127.943 32.342 126.322 31.886 124.852 30.974C123.383 30.062 122.218 28.7827 121.356 27.136C120.52 25.464 120.102 23.5513 120.102 21.398ZM136.67 21.474C136.67 20.182 136.417 19.08 135.91 18.168C135.404 17.2307 134.72 16.5213 133.858 16.04C132.997 15.5333 132.072 15.28 131.084 15.28C130.096 15.28 129.184 15.5207 128.348 16.002C127.512 16.4833 126.828 17.1927 126.296 18.13C125.79 19.042 125.536 20.1313 125.536 21.398C125.536 22.6647 125.79 23.7793 126.296 24.742C126.828 25.6793 127.512 26.4013 128.348 26.908C129.21 27.4147 130.122 27.668 131.084 27.668C132.072 27.668 132.997 27.4273 133.858 26.946C134.72 26.4393 135.404 25.73 135.91 24.818C136.417 23.8807 136.67 22.766 136.67 21.474ZM155.432 32.342C153.405 32.342 151.581 31.8987 149.96 31.012C148.339 30.1 147.059 28.8207 146.122 27.174C145.21 25.5273 144.754 23.6273 144.754 21.474C144.754 19.3207 145.223 17.4207 146.16 15.774C147.123 14.1273 148.427 12.8607 150.074 11.974C151.721 11.062 153.557 10.606 155.584 10.606C157.611 10.606 159.447 11.062 161.094 11.974C162.741 12.8607 164.033 14.1273 164.97 15.774C165.933 17.4207 166.414 19.3207 166.414 21.474C166.414 23.6273 165.92 25.5273 164.932 27.174C163.969 28.8207 162.652 30.1 160.98 31.012C159.333 31.8987 157.484 32.342 155.432 32.342ZM155.432 27.706C156.395 27.706 157.294 27.478 158.13 27.022C158.991 26.5407 159.675 25.8313 160.182 24.894C160.689 23.9567 160.942 22.8167 160.942 21.474C160.942 19.4727 160.41 17.94 159.346 16.876C158.307 15.7867 157.028 15.242 155.508 15.242C153.988 15.242 152.709 15.7867 151.67 16.876C150.657 17.94 150.15 19.4727 150.15 21.474C150.15 23.4753 150.644 25.0207 151.632 26.11C152.645 27.174 153.912 27.706 155.432 27.706ZM167.809 21.474C167.809 19.2953 168.252 17.3953 169.139 15.774C170.025 14.1273 171.254 12.8607 172.825 11.974C174.395 11.062 176.194 10.606 178.221 10.606C180.83 10.606 182.983 11.2647 184.681 12.582C186.403 13.874 187.556 15.698 188.139 18.054H182.401C182.097 17.142 181.577 16.4327 180.843 15.926C180.133 15.394 179.247 15.128 178.183 15.128C176.663 15.128 175.459 15.6853 174.573 16.8C173.686 17.8893 173.243 19.4473 173.243 21.474C173.243 23.4753 173.686 25.0333 174.573 26.148C175.459 27.2373 176.663 27.782 178.183 27.782C180.336 27.782 181.742 26.8193 182.401 24.894H188.139C187.556 27.174 186.403 28.9853 184.681 30.328C182.958 31.6707 180.805 32.342 178.221 32.342C176.194 32.342 174.395 31.8987 172.825 31.012C171.254 30.1 170.025 28.8333 169.139 27.212C168.252 25.5653 167.809 23.6527 167.809 21.474Z" fill="#2B2B21"/>
<defs>
<clipPath id="clip0_2606_3908">
<rect width="37" height="32" fill="white" transform="translate(0 3)"/>
</clipPath>
</defs>
</svg>
